<svg width="24" height="24" viewBox="0 0 24 24" fill="none" xmlns="http://www.w3.org/2000/svg">
<g clip-path="url(#clip0_6174_7126)">
<path d="M4 17.2C4 18.7461 5.25354 19.9995 6.79983 19.9995L9.6 20C9.28532 20 8.99788 19.8209 8.85944 19.5383L8.40008 18.6002C7.98046 17.7436 7.10965 17.2006 6.15569 17.2005L4 17.2ZM4 12.803C4 14.3477 5.25354 15.6 6.79985 15.6L11.6 15.597C11.2853 15.597 10.9979 15.4181 10.8594 15.1358L10.4001 14.1985C9.98044 13.3426 9.10964 12.8001 8.15568 12.8L4 12.803ZM10.9668 4C11.9209 4 12.7916 4.54253 13.2113 5.39831L13.6711 6.33545C13.8079 6.61426 14.0898 6.79195 14.4 6.79622L6.8 6.8C5.2536 6.8 4 5.54791 4 4.00339L10.9668 4ZM9.3668 8.4C10.3209 8.4 11.1916 8.94252 11.6113 9.79824L12.0711 10.7354C12.2079 11.0141 12.4898 11.1918 12.8 11.1961L6.8 11.2C5.2536 11.2 4 9.94796 4 8.40352L9.3668 8.4Z" fill="#22C55F"/>
<path d="M19.9996 4C19.9996 5.5461 18.7461 6.79946 17.1998 6.79946L14.3996 6.79996C14.7143 6.79996 15.0017 6.62089 15.1402 6.33833L15.5995 5.40023C16.0192 4.54361 16.89 4.00056 17.8439 4.0005L19.9996 4ZM19.9996 8.40304C19.9996 9.94776 18.746 11.2 17.1998 11.2L12.7996 11.197C13.1143 11.197 13.4017 11.0181 13.5402 10.7358L13.9995 9.79852C14.4192 8.94268 15.29 8.40012 16.2439 8.40004L19.9996 8.40304ZM13.0328 17.2C12.0787 17.2 11.208 17.7425 10.7883 18.5983L10.3285 19.5354C10.1917 19.8142 9.90981 19.992 9.59961 19.9962L17.1996 20C18.746 20 19.9996 18.7479 19.9996 17.2034L13.0328 17.2ZM15.0328 12.8C14.0787 12.8 13.208 13.3425 12.7883 14.1982L12.3285 15.1354C12.1917 15.4141 11.9098 15.5918 11.5996 15.5961L17.1996 15.6C18.746 15.6 19.9996 14.348 19.9996 12.8035L15.0328 12.8Z" fill="#166534"/>
</g>
<defs>
<clipPath id="clip0_6174_7126">
<rect width="16" height="16" fill="white" transform="translate(4 4)"/>
</clipPath>
</defs>
</svg>
